<svg width="1280" height="320" viewBox="0 0 1280 320" fill="none" xmlns="http://www.w3.org/2000/svg">
<rect x="-80" y="280" width="1440" height="40" fill="#231705"/>
<rect width="40" height="40" transform="matrix(0 1 1 0 1040 240)" fill="#E89623"/>
<rect width="40" height="40" transform="matrix(0 1 1 0 1000 240)" fill="#F6F6F5"/>
<rect width="40" height="40" transform="matrix(0 1 1 0 560 240)" fill="#F6F6F5"/>
<rect width="40" height="40" transform="matrix(0 1 1 0 400 240)" fill="#F6F6F5"/>
<rect width="40" height="40" transform="matrix(0 1 1 0 1080 240)" fill="#E89623"/>
<rect width="40" height="40" transform="matrix(0 1 1 0 1160 240)" fill="#E89623"/>
<rect width="40" height="40" transform="matrix(0 1 1 0 1200 240)" fill="#A55628"/>
<rect width="40" height="40" transform="matrix(0 1 1 0 1200 280)" fill="#A55628"/>
<rect width="40" height="40" transform="matrix(0 1 1 0 1160 280)" fill="#A55628"/>
<rect width="40" height="40" transform="matrix(0 1 1 0 1240 240)" fill="#A55628"/>
<rect width="40" height="40" transform="matrix(0 1 1 0 1240 200)" fill="#E89623"/>
<rect width="40" height="40" transform="matrix(0 1 1 0 1120 240)" fill="#231705"/>
<rect width="40" height="40" transform="matrix(0 1 1 0 1160 160)" fill="#E89623"/>
<rect width="40" height="40" transform="matrix(0 1 1 0 1240 160)" fill="#E89623"/>
<rect width="40" height="40" transform="matrix(0 1 1 0 1080 160)" fill="#E89623"/>
<rect width="40" height="40" transform="matrix(0 1 1 0 1200 120)" fill="#E89623"/>
<rect width="40" height="40" transform="matrix(0 1 1 0 1040 120)" fill="#E89623"/>
<rect width="40" height="40" transform="matrix(0 1 1 0 1240 80)" fill="#E89623"/>
<rect width="40" height="40" transform="matrix(0 1 1 0 1240 0)" fill="#E89623"/>
<rect width="40" height="40" transform="matrix(0 1 1 0 1080 40)" fill="#E89623"/>
<rect width="40" height="40" transform="matrix(0 1 1 0 1080 200)" fill="#E89623"/>
<rect width="40" height="40" transform="matrix(0 1 1 0 1120 200)" fill="#E89623"/>
<rect width="40" height="40" transform="matrix(0 1 1 0 1160 200)" fill="#A55628"/>
<rect width="40" height="40" transform="matrix(0 1 1 0 1200 200)" fill="#E89623"/>
<rect width="40" height="40" transform="matrix(0 1 1 0 0 240)" fill="#E89623"/>
<rect width="40" height="40" transform="matrix(0 1 1 0 80 240)" fill="#E89623"/>
<rect width="40" height="40" transform="matrix(0 1 1 0 120 240)" fill="#A55628"/>
<rect width="40" height="40" transform="matrix(0 1 1 0 120 280)" fill="#A55628"/>
<rect width="40" height="40" transform="matrix(0 1 1 0 160 240)" fill="#A55628"/>
<rect width="40" height="40" transform="matrix(0 1 1 0 160 200)" fill="#E89623"/>
<rect width="40" height="40" transform="matrix(0 1 1 0 200 240)" fill="#E89623"/>
<rect width="40" height="40" transform="matrix(0 1 1 0 40 240)" fill="#231705"/>
<rect width="40" height="40" transform="matrix(0 1 1 0 80 160)" fill="#E89623"/>
<rect width="40" height="40" transform="matrix(0 1 1 0 160 160)" fill="#E89623"/>
<rect width="40" height="40" transform="matrix(0 1 1 0 240 160)" fill="#E89623"/>
<rect width="40" height="40" transform="matrix(0 1 1 0 0 160)" fill="#E89623"/>
<rect width="40" height="40" transform="matrix(0 1 1 0 120 120)" fill="#E89623"/>
<rect width="40" height="40" transform="matrix(0 1 1 0 0 0)" fill="#E89623"/>
<rect width="40" height="40" transform="matrix(0 1 1 0 0 200)" fill="#E89623"/>
<rect width="40" height="40" transform="matrix(0 1 1 0 40 200)" fill="#E89623"/>
<rect width="40" height="40" transform="matrix(0 1 1 0 80 200)" fill="#A55628"/>
<rect width="40" height="40" transform="matrix(0 1 1 0 120 200)" fill="#E89623"/>
<rect width="40" height="40" transform="matrix(-1 0 0 1 1000 240)" fill="#E89623"/>
<rect width="40" height="40" transform="matrix(-1 0 0 1 960 240)" fill="#231705"/>
<rect width="40" height="40" transform="matrix(-1 0 0 1 920 240)" fill="#E89623"/>
<rect width="40" height="40" transform="matrix(-1 0 0 1 880 240)" fill="#A55628"/>
<rect width="40" height="40" transform="matrix(-1 0 0 1 880 280)" fill="#E89623"/>
<rect width="40" height="40" transform="matrix(-1 0 0 1 920 280)" fill="#E89623"/>
<rect width="40" height="40" transform="matrix(-1 0 0 1 800 280)" fill="#A55628"/>
<rect width="40" height="40" transform="matrix(-1 0 0 1 840 240)" fill="#E89623"/>
<rect width="40" height="40" transform="matrix(-1 0 0 1 880 200)" fill="#E89623"/>
<rect width="40" height="40" transform="matrix(-1 0 0 1 800 240)" fill="#E89623"/>
<rect width="40" height="40" transform="matrix(-1 0 0 1 760 240)" fill="#231705"/>
<rect width="40" height="40" transform="matrix(-1 0 0 1 760 280)" fill="#E89623"/>
<rect width="40" height="40" transform="matrix(-1 0 0 1 720 240)" fill="#231705"/>
<rect width="40" height="40" transform="matrix(-1 0 0 1 680 240)" fill="#E89623"/>
<rect width="40" height="40" transform="matrix(-1 0 0 1 640 240)" fill="#E89623"/>
<rect width="40" height="40" transform="matrix(-1 0 0 1 560 240)" fill="#A55628"/>
<rect width="40" height="40" transform="matrix(-1 0 0 1 560 280)" fill="#E89623"/>
<rect width="40" height="40" transform="matrix(-1 0 0 1 520 240)" fill="#231705"/>
<rect width="40" height="40" transform="matrix(-1 0 0 1 480 240)" fill="#E89623"/>
<rect width="40" height="40" transform="matrix(-1 0 0 1 400 240)" fill="#E89623"/>
<rect width="40" height="40" transform="matrix(-1 0 0 1 440 200)" fill="#E89623"/>
<rect width="40" height="40" transform="matrix(-1 0 0 1 400 280)" fill="#E89623"/>
<rect width="40" height="40" transform="matrix(-1 0 0 1 360 240)" fill="#E89623"/>
<rect width="40" height="40" transform="matrix(-1 0 0 1 360 200)" fill="#E89623"/>
<rect width="40" height="40" transform="matrix(-1 0 0 1 320 240)" fill="#231705"/>
<rect width="40" height="40" transform="matrix(-1 0 0 1 280 240)" fill="#E89623"/>
</svg>
